<svg width="31" height="30" viewBox="0 0 31 30" fill="none" xmlns="http://www.w3.org/2000/svg">
<path d="M30.8249 28.1746C28.5572 24.2292 25.0626 21.4002 20.9844 20.0591C23.0017 18.8505 24.569 17.009 25.4456 14.8172C26.3222 12.6255 26.4597 10.2048 25.837 7.92681C25.2142 5.64883 23.8656 3.63956 21.9983 2.20755C20.131 0.775552 17.8483 0 15.5006 0C13.1529 0 10.8702 0.775552 9.00288 2.20755C7.13558 3.63956 5.78701 5.64883 5.16425 7.92681C4.54149 10.2048 4.67898 12.6255 5.55561 14.8172C6.43224 17.009 7.99954 18.8505 10.0168 20.0591C5.93859 21.3987 2.44403 24.2277 0.17636 28.1746C0.093201 28.311 0.0380419 28.4629 0.0141377 28.6211C-0.0097665 28.7794 -0.00193169 28.9408 0.0371799 29.096C0.0762914 29.2512 0.145888 29.3969 0.241862 29.5245C0.337836 29.6522 0.458244 29.7592 0.595983 29.8393C0.733721 29.9193 0.886 29.9708 1.04383 29.9907C1.20167 30.0106 1.36186 29.9985 1.51496 29.955C1.66805 29.9116 1.81096 29.8378 1.93524 29.7378C2.05951 29.6379 2.16265 29.514 2.23855 29.3733C5.04373 24.4944 10.0019 21.5815 15.5006 21.5815C20.9993 21.5815 25.9575 24.4944 28.7627 29.3733C28.8386 29.514 28.9417 29.6379 29.066 29.7378C29.1903 29.8378 29.3332 29.9116 29.4863 29.955C29.6394 29.9985 29.7996 30.0106 29.9574 29.9907C30.1152 29.9708 30.2675 29.9193 30.4052 29.8393C30.543 29.7592 30.6634 29.6522 30.7594 29.5245C30.8553 29.3969 30.9249 29.2512 30.964 29.096C31.0032 28.9408 31.011 28.7794 30.9871 28.6211C30.9632 28.4629 30.908 28.311 30.8249 28.1746ZM7.1625 10.7928C7.1625 9.13315 7.65152 7.51079 8.56773 6.13087C9.48393 4.75094 10.7862 3.67542 12.3098 3.04031C13.8333 2.4052 15.5099 2.23902 17.1273 2.5628C18.7447 2.88657 20.2304 3.68576 21.3965 4.85929C22.5626 6.03282 23.3568 7.52799 23.6785 9.15573C24.0002 10.7835 23.8351 12.4707 23.204 14.0039C22.5729 15.5372 21.5042 16.8478 20.133 17.7698C18.7618 18.6918 17.1497 19.184 15.5006 19.184C13.2899 19.1816 11.1705 18.2968 9.60729 16.7236C8.0441 15.1505 7.16487 13.0175 7.1625 10.7928Z" fill="#A1A1A1"/>
</svg>
