<svg width="54" height="54" viewBox="0 0 54 54" fill="none" xmlns="http://www.w3.org/2000/svg">
<g filter="url(#filter0_d_250_239)">
<path d="M28.3279 11.549C27.9757 11.1975 27.4982 11 27.0002 11C26.5022 11 26.0247 11.1975 25.6725 11.549L12.5272 24.6742C12.1851 25.0278 11.9958 25.5014 12.0001 25.9931C12.0043 26.4847 12.2018 26.955 12.55 27.3026C12.8982 27.6502 13.3692 27.8474 13.8616 27.8517C14.354 27.856 14.8283 27.667 15.1825 27.3254L15.7327 26.7761V39.125C15.7327 39.6223 15.9306 40.0992 16.2828 40.4508C16.6349 40.8025 17.1126 41 17.6107 41H21.3665C21.8645 41 22.3422 40.8025 22.6944 40.4508C23.0465 40.0992 23.2444 39.6223 23.2444 39.125V35.3749C23.2444 34.8776 23.4422 34.4007 23.7944 34.0491C24.1466 33.6974 24.6242 33.4999 25.1223 33.4999H28.8781C29.3762 33.4999 29.8538 33.6974 30.206 34.0491C30.5582 34.4007 30.756 34.8776 30.756 35.3749V39.125C30.756 39.6223 30.9539 40.0992 31.306 40.4508C31.6582 40.8025 32.1359 41 32.6339 41H36.3897C36.8878 41 37.3655 40.8025 37.7176 40.4508C38.0698 40.0992 38.2677 39.6223 38.2677 39.125V26.7761L38.8179 27.3254C39.1721 27.667 39.6464 27.856 40.1388 27.8517C40.6312 27.8474 41.1022 27.6502 41.4504 27.3026C41.7986 26.955 41.9961 26.4847 42.0003 25.9931C42.0046 25.5014 41.8153 25.0278 41.4733 24.6742L28.3279 11.549Z" fill="#0FCA21"/>
</g>
<defs>
<filter id="filter0_d_250_239" x="0" y="0" width="54.0004" height="54" filterUnits="userSpaceOnUse" color-interpolation-filters="sRGB">
<feFlood flood-opacity="0" result="BackgroundImageFix"/>
<feColorMatrix in="SourceAlpha" type="matrix" values="0 0 0 0 0 0 0 0 0 0 0 0 0 0 0 0 0 0 127 0" result="hardAlpha"/>
<feOffset dy="1"/>
<feGaussianBlur stdDeviation="6"/>
<feComposite in2="hardAlpha" operator="out"/>
<feColorMatrix type="matrix" values="0 0 0 0 0.0569546 0 0 0 0 0.79349 0 0 0 0 0.130608 0 0 0 0.4 0"/>
<feBlend mode="normal" in2="BackgroundImageFix" result="effect1_dropShadow_250_239"/>
<feBlend mode="normal" in="SourceGraphic" in2="effect1_dropShadow_250_239" result="shape"/>
</filter>
</defs>
</svg>
