<svg width="33" height="32" viewBox="0 0 33 32" fill="none" xmlns="http://www.w3.org/2000/svg">
<path d="M29.6102 3.65222C28.8528 2.81139 27.9534 2.14438 26.9635 1.6893C25.9737 1.23423 24.9127 1 23.8412 1C22.7698 1 21.7088 1.23423 20.7189 1.6893C19.7291 2.14438 18.8297 2.81139 18.0722 3.65222L16.5002 5.39642L14.9282 3.65222C13.3982 1.95459 11.323 1.00088 9.1592 1.00088C6.99541 1.00088 4.92024 1.95459 3.39021 3.65222C1.86017 5.34984 1.00061 7.65231 1.00061 10.0531C1.00061 12.4539 1.86017 14.7564 3.39021 16.454L4.96222 18.1982L16.5002 31L28.0382 18.1982L29.6102 16.454C30.368 15.6136 30.9692 14.6157 31.3794 13.5174C31.7895 12.4191 32.0006 11.2419 32.0006 10.0531C32.0006 8.86428 31.7895 7.68709 31.3794 6.5888C30.9692 5.49052 30.368 4.49265 29.6102 3.65222V3.65222Z" stroke="#A1A1A1" stroke-width="2" stroke-linecap="round" stroke-linejoin="round"/>
</svg>
